<svg width="24" height="24" viewBox="0 0 24 24" fill="none" xmlns="http://www.w3.org/2000/svg">
<path d="M20.9994 6.54825C20.9921 6.45056 20.9104 6.375 20.8125 6.375H17.4375V5.4375C17.4375 2.43919 14.9981 0 12 0C9.00185 0 6.56248 2.43919 6.56248 5.4375V6.375H3.18748C3.0896 6.375 3.00785 6.45056 3.00054 6.54825L1.68804 23.7983C1.6841 23.8502 1.70191 23.9016 1.73754 23.9398C1.77298 23.9783 1.82285 24 1.87498 24H22.125C22.1771 24 22.227 23.9783 22.2624 23.94C22.2979 23.9018 22.3159 23.8504 22.3119 23.7984L20.9994 6.54825ZM8.06248 5.4375C8.06248 3.26644 9.82873 1.5 12 1.5C14.1712 1.5 15.9375 3.26644 15.9375 5.4375V6.375H8.06248V5.4375ZM7.31248 11.625C6.27841 11.625 5.43748 10.7839 5.43748 9.75C5.43748 9.00169 5.81248 8.32744 6.56248 8.03156V9.75C6.56248 10.1636 6.89904 10.5 7.31248 10.5C7.72591 10.5 8.06248 10.1636 8.06248 9.75V8.03269C8.81248 8.32856 9.18748 9.00788 9.18748 9.75C9.18748 10.7839 8.34654 11.625 7.31248 11.625ZM16.6875 11.625C15.6534 11.625 14.8125 10.7839 14.8125 9.75C14.8125 9.00169 15.1875 8.32744 15.9375 8.03156V9.75C15.9375 10.1636 16.274 10.5 16.6875 10.5C17.1009 10.5 17.4375 10.1636 17.4375 9.75V8.03269C18.1875 8.32856 18.5625 9.00788 18.5625 9.75C18.5625 10.7839 17.7215 11.625 16.6875 11.625Z" fill="#2F1600"/>
</svg>
