<svg width="24" height="26" viewBox="0 0 24 26" fill="none" xmlns="http://www.w3.org/2000/svg">
<path d="M24 8.27734V6.90625C24 5.33569 22.8248 4.0625 21.375 4.0625H2.625C1.17525 4.0625 0 5.33569 0 6.90625V8.27734C0 8.41755 0.104953 8.53125 0.234375 8.53125H23.7656C23.895 8.53125 24 8.41755 24 8.27734Z" fill="white"/>
<path d="M0 10.4102V19.0938C0 20.6643 1.17525 21.9375 2.625 21.9375H21.375C22.8248 21.9375 24 20.6643 24 19.0938V10.4102C24 10.2699 23.895 10.1562 23.7656 10.1562H0.234375C0.104953 10.1562 0 10.2699 0 10.4102ZM6 17.0625C6 17.5112 5.66419 17.875 5.25 17.875H4.5C4.08581 17.875 3.75 17.5112 3.75 17.0625V16.25C3.75 15.8013 4.08581 15.4375 4.5 15.4375H5.25C5.66419 15.4375 6 15.8013 6 16.25V17.0625Z" fill="white"/>
</svg>
