<svg width="25" height="24" viewBox="0 0 25 24" fill="none" xmlns="http://www.w3.org/2000/svg">
<path d="M12.6446 0.0500488C6.01721 0.0500488 0.644531 5.42273 0.644531 12.0501C0.644531 17.9941 4.97079 22.9167 10.6432 23.87V14.5537H7.74846V11.2011H10.6432V8.72905C10.6432 5.86077 12.3951 4.29772 14.9542 4.29772C16.1798 4.29772 17.2331 4.38905 17.5389 4.42928V7.4274L15.764 7.42826C14.3726 7.42826 14.1043 8.08932 14.1043 9.05973V11.1994H17.4244L16.9913 14.5519H14.1043V23.9501C20.0416 23.2275 24.6445 18.1795 24.6445 12.0467C24.6445 5.42273 19.2718 0.0500488 12.6446 0.0500488Z" fill="white"/>
</svg>
