<svg width="25" height="24" viewBox="0 0 25 24" fill="none" xmlns="http://www.w3.org/2000/svg">
<path d="M18.2594 0.000244141H7.50576C3.85387 0.000244141 0.882812 2.97144 0.882812 6.62334V17.377C0.882812 21.029 3.85387 24.0001 7.50576 24.0001H18.2594C21.9116 24.0001 24.8827 21.0289 24.8827 17.377V6.62334C24.8828 2.97144 21.9116 0.000244141 18.2594 0.000244141ZM22.7534 17.377C22.7534 19.8549 20.7375 21.8707 18.2596 21.8707H7.50576C5.02801 21.8709 3.0122 19.8549 3.0122 17.377V6.62334C3.0122 4.14559 5.02801 2.12963 7.50576 2.12963H18.2594C20.7373 2.12963 22.7533 4.14559 22.7533 6.62334V17.377H22.7534Z" fill="white"/>
<path d="M12.8834 5.81665C9.47338 5.81665 6.69922 8.59081 6.69922 12.0008C6.69922 15.4107 9.47338 18.1847 12.8834 18.1847C16.2934 18.1847 19.0675 15.4107 19.0675 12.0008C19.0675 8.59081 16.2934 5.81665 12.8834 5.81665ZM12.8834 16.0552C10.6477 16.0552 8.8286 14.2364 8.8286 12.0007C8.8286 9.76481 10.6475 7.94589 12.8834 7.94589C15.1192 7.94589 16.9381 9.76481 16.9381 12.0007C16.9381 14.2364 15.1191 16.0552 12.8834 16.0552Z" fill="white"/>
<path d="M19.3272 4.01074C18.9169 4.01074 18.5139 4.17683 18.2242 4.46785C17.933 4.75745 17.7656 5.16061 17.7656 5.57229C17.7656 5.98269 17.9331 6.38571 18.2242 6.67673C18.5137 6.96633 18.9169 7.13384 19.3272 7.13384C19.7388 7.13384 20.1406 6.96633 20.4316 6.67673C20.7226 6.38571 20.8887 5.98255 20.8887 5.57229C20.8887 5.16061 20.7226 4.75745 20.4316 4.46785C20.142 4.17683 19.7388 4.01074 19.3272 4.01074Z" fill="white"/>
</svg>
