<svg width="21" height="24" viewBox="0 0 21 24" fill="none" xmlns="http://www.w3.org/2000/svg">
<path d="M17.8826 1.8105C16.7362 0.542999 14.6615 0 12.0074 0H4.30499C3.7625 0 3.30146 0.382499 3.2154 0.899998L0.00814874 20.5965C-0.05486 20.985 0.255573 21.336 0.661288 21.336H5.41614L6.61023 14.001L6.57335 14.232C6.65788 13.7145 7.11738 13.332 7.65987 13.332H9.91896C14.3588 13.332 17.8335 11.586 18.8493 6.53549C18.88 6.38549 18.9277 6.09749 18.9277 6.09749C19.2165 4.22849 18.9261 2.96099 17.8826 1.8105Z" fill="#2F1600"/>
<path d="M20.1296 7.05426C19.0262 12.0267 15.5054 14.6577 9.91761 14.6577H7.89211L6.3799 23.9997H9.66558C10.1404 23.9997 10.5446 23.6652 10.6184 23.2107L10.6568 23.0127L11.4129 18.3762L11.4621 18.1212C11.5359 17.6667 11.94 17.3322 12.4134 17.3322H13.0143C16.8977 17.3322 19.9375 15.8052 20.8258 11.3877C21.1823 9.61475 21.0102 8.12825 20.1296 7.05426Z" fill="#2F1600"/>
</svg>
