<svg width="25" height="24" viewBox="0 0 25 24" fill="none" xmlns="http://www.w3.org/2000/svg">
<path fill-rule="evenodd" clip-rule="evenodd" d="M24.7632 12.0005C24.7632 18.6278 19.3908 24.0003 12.7635 24.0003C6.13616 24.0003 0.763672 18.6278 0.763672 12.0005C0.763672 5.37322 6.13616 0.000732422 12.7635 0.000732422C19.3908 0.000732422 24.7632 5.37322 24.7632 12.0005ZM12.2151 15.4375C12.6657 15.75 13.0503 16.0167 13.7315 16.0694C17.0787 16.3278 18.9482 12.7286 18.492 9.40509C18.0864 6.46044 15.1482 4.96052 12.0176 5.3109C9.54229 5.58813 7.07444 7.59137 6.97155 10.4524C6.90781 12.2002 7.40364 13.5113 9.06592 13.8794C9.53889 13.0446 9.29155 12.6369 9.02339 12.1948C8.88272 11.963 8.73632 11.7216 8.68516 11.4043C8.07489 7.63137 13.0378 5.05571 15.635 7.69127C17.4327 9.51675 16.2494 15.129 13.3507 14.5464C11.9039 14.2556 12.334 12.9031 12.7642 11.5503C13.1595 10.3069 13.555 9.06319 12.4934 8.64337C10.6923 7.93041 9.73566 10.8237 10.5896 12.2612C10.4576 12.9123 10.2856 13.5535 10.1118 14.2015C9.62555 16.0137 9.12509 17.879 9.44732 20.1631C10.8627 19.1357 11.3406 17.1691 11.7316 15.1175C11.9089 15.2251 12.0656 15.3338 12.2151 15.4375Z" fill="white"/>
</svg>
