<svg width="119" height="26" viewBox="0 0 119 26" fill="none" xmlns="http://www.w3.org/2000/svg">
<path fill-rule="evenodd" clip-rule="evenodd" d="M113 26H6C2.686 26 0 23.314 0 20V6C0 2.686 2.686 0 6 0H113C116.314 0 119 2.686 119 6V20C119 23.314 116.314 26 113 26ZM118 6C118 3.239 115.761 1 113 1H6C3.239 1 1 3.239 1 6V20C1 22.761 3.239 25 6 25H113C115.761 25 118 22.761 118 20V6Z" fill="#32364E"/>
<path fill-rule="evenodd" clip-rule="evenodd" d="M60.6993 18.4369H59.3943L60.4043 15.9429L58.3943 10.8709H59.7733L61.0363 14.3229L62.3093 10.8709H63.6883L60.6993 18.4369ZM55.6893 16.2589C55.2373 16.2589 54.7733 16.0909 54.3533 15.7639V16.1329H53.0063V8.56592H54.3533V11.2289C54.7733 10.9129 55.2373 10.7449 55.6893 10.7449C57.0993 10.7449 58.0673 11.8809 58.0673 13.5019C58.0673 15.1219 57.0993 16.2589 55.6893 16.2589ZM55.4053 11.9019C55.0373 11.9019 54.6683 12.0599 54.3533 12.3759V14.6279C54.6683 14.9429 55.0373 15.1009 55.4053 15.1009C56.1633 15.1009 56.6893 14.4489 56.6893 13.5019C56.6893 12.5549 56.1633 11.9019 55.4053 11.9019ZM47.5533 15.7639C47.1433 16.0909 46.6803 16.2589 46.2173 16.2589C44.8173 16.2589 43.8393 15.1219 43.8393 13.5019C43.8393 11.8809 44.8173 10.7449 46.2173 10.7449C46.6803 10.7449 47.1433 10.9129 47.5533 11.2289V8.56592H48.9113V16.1329H47.5533V15.7639ZM47.5533 12.3759C47.2483 12.0599 46.8803 11.9019 46.5123 11.9019C45.7433 11.9019 45.2173 12.5549 45.2173 13.5019C45.2173 14.4489 45.7433 15.1009 46.5123 15.1009C46.8803 15.1009 47.2483 14.9429 47.5533 14.6279V12.3759ZM39.5343 13.8699C39.6183 14.6699 40.2503 15.2169 41.1333 15.2169C41.6183 15.2169 42.1543 15.0379 42.7013 14.7219V15.8489C42.1023 16.1219 41.5023 16.2589 40.9123 16.2589C39.3233 16.2589 38.2083 15.1009 38.2083 13.4599C38.2083 11.8709 39.3023 10.7449 40.8073 10.7449C42.1863 10.7449 43.1223 11.8289 43.1223 13.3749C43.1223 13.5229 43.1223 13.6909 43.1013 13.8699H39.5343ZM40.7553 11.7859C40.1023 11.7859 39.5973 12.2709 39.5343 12.9969H41.8283C41.7863 12.2809 41.3553 11.7859 40.7553 11.7859ZM35.9873 12.6179V16.1329H34.6403V10.8709H35.9873V11.3969C36.3663 10.9759 36.8293 10.7449 37.2813 10.7449C37.4293 10.7449 37.5763 10.7549 37.7233 10.7969V11.9969C37.5763 11.9549 37.4083 11.9339 37.2503 11.9339C36.8083 11.9339 36.3343 12.1759 35.9873 12.6179ZM29.9783 13.8699C30.0623 14.6699 30.6933 15.2169 31.5773 15.2169C32.0613 15.2169 32.5983 15.0379 33.1453 14.7219V15.8489C32.5453 16.1219 31.9453 16.2589 31.3563 16.2589C29.7673 16.2589 28.6523 15.1009 28.6523 13.4599C28.6523 11.8709 29.7463 10.7449 31.2513 10.7449C32.6293 10.7449 33.5663 11.8289 33.5663 13.3749C33.5663 13.5229 33.5663 13.6909 33.5453 13.8699H29.9783ZM31.1983 11.7859C30.5463 11.7859 30.0413 12.2709 29.9783 12.9969H32.2723C32.2303 12.2809 31.7983 11.7859 31.1983 11.7859ZM25.2733 16.1329L24.1993 12.5549L23.1363 16.1329H21.9263L20.1163 10.8709H21.4633L22.5263 14.4489L23.5893 10.8709H24.8093L25.8723 14.4489L26.9353 10.8709H28.2823L26.4833 16.1329H25.2733ZM17.0423 16.2589C15.4533 16.2589 14.3273 15.1119 14.3273 13.5019C14.3273 11.8809 15.4533 10.7449 17.0423 10.7449C18.6313 10.7449 19.7473 11.8809 19.7473 13.5019C19.7473 15.1119 18.6313 16.2589 17.0423 16.2589ZM17.0423 11.8709C16.2533 11.8709 15.7063 12.5339 15.7063 13.5019C15.7063 14.4699 16.2533 15.1329 17.0423 15.1329C17.8213 15.1329 18.3683 14.4699 18.3683 13.5019C18.3683 12.5339 17.8213 11.8709 17.0423 11.8709ZM11.1273 13.5329H9.91731V16.1329H8.57031V8.89192H11.1273C12.6013 8.89192 13.6533 9.84992 13.6533 11.2179C13.6533 12.5859 12.6013 13.5329 11.1273 13.5329ZM10.9383 9.98692H9.91731V12.4389H10.9383C11.7173 12.4389 12.2643 11.9439 12.2643 11.2179C12.2643 10.4819 11.7173 9.98692 10.9383 9.98692Z" fill="#32364E"/>
<path fill-rule="evenodd" clip-rule="evenodd" d="M111.116 14.051H105.557C105.684 15.382 106.659 15.774 107.766 15.774C108.893 15.774 109.781 15.536 110.555 15.146V17.433C109.784 17.861 108.765 18.169 107.408 18.169C104.642 18.169 102.704 16.437 102.704 13.013C102.704 10.121 104.348 7.82498 107.049 7.82498C109.746 7.82498 111.154 10.12 111.154 13.028C111.154 13.303 111.129 13.898 111.116 14.051ZM107.031 10.14C106.321 10.14 105.532 10.676 105.532 11.955H108.468C108.468 10.677 107.728 10.14 107.031 10.14ZM98.1084 18.169C97.1144 18.169 96.5074 17.75 96.0994 17.451L96.0934 20.664L93.2544 21.268L93.2534 8.01398H95.7534L95.9014 8.71498C96.2934 8.34898 97.0124 7.82498 98.1254 7.82498C100.119 7.82498 101.997 9.62098 101.997 12.927C101.997 16.535 100.139 18.169 98.1084 18.169ZM97.4464 10.34C96.7954 10.34 96.3864 10.578 96.0904 10.903L96.1074 15.122C96.3834 15.421 96.7804 15.661 97.4464 15.661C98.4964 15.661 99.2004 14.518 99.2004 12.989C99.2004 11.504 98.4854 10.34 97.4464 10.34ZM89.1494 8.01398H91.9994V17.966H89.1494V8.01398ZM89.1494 4.83598L91.9994 4.22998V6.54298L89.1494 7.14898V4.83598ZM86.1104 11.219V17.966H83.2724V8.01398H85.7274L85.9054 8.85298C86.5704 7.63098 87.8974 7.87898 88.2754 8.01498V10.625C87.9144 10.508 86.7814 10.338 86.1104 11.219ZM80.0244 14.475C80.0244 16.148 81.8164 15.627 82.1794 15.482V17.793C81.8014 18.001 81.1154 18.169 80.1874 18.169C78.5024 18.169 77.2374 16.928 77.2374 15.247L77.2504 6.13798L80.0224 5.54798L80.0244 8.01398H82.1804V10.435H80.0244V14.475ZM76.4854 14.959C76.4854 17.003 74.8584 18.169 72.4974 18.169C71.5184 18.169 70.4484 17.979 69.3924 17.525V14.814C70.3454 15.332 71.5594 15.721 72.5004 15.721C73.1334 15.721 73.5894 15.551 73.5894 15.026C73.5894 13.671 69.2734 14.181 69.2734 11.038C69.2734 9.02798 70.8084 7.82498 73.1114 7.82498C74.0524 7.82498 74.9924 7.96898 75.9334 8.34398V11.019C75.0694 10.552 73.9724 10.288 73.1094 10.288C72.5144 10.288 72.1444 10.46 72.1444 10.903C72.1444 12.181 76.4854 11.573 76.4854 14.959Z" fill="#32364E"/>
</svg>
