<svg width="24" height="24" viewBox="0 0 24 24" fill="none" xmlns="http://www.w3.org/2000/svg">
<path d="M24 4.55874C23.1075 4.95024 22.1565 5.20974 21.165 5.33574C22.185 4.72674 22.9635 3.76974 23.3295 2.61624C22.3785 3.18324 21.3285 3.58374 20.2095 3.80724C19.3065 2.84574 18.0195 2.25024 16.6155 2.25024C13.8915 2.25024 11.6985 4.46124 11.6985 7.17174C11.6985 7.56174 11.7315 7.93674 11.8125 8.29374C7.722 8.09424 4.1025 6.13374 1.671 3.14724C1.2465 3.88374 0.9975 4.72674 0.9975 5.63424C0.9975 7.33824 1.875 8.84874 3.183 9.72324C2.3925 9.70824 1.617 9.47874 0.96 9.11724C0.96 9.13224 0.96 9.15174 0.96 9.17124C0.96 11.5622 2.6655 13.5482 4.902 14.0057C4.5015 14.1152 4.065 14.1677 3.612 14.1677C3.297 14.1677 2.979 14.1497 2.6805 14.0837C3.318 16.0322 5.127 17.4647 7.278 17.5112C5.604 18.8207 3.4785 19.6097 1.1775 19.6097C0.774 19.6097 0.387 19.5917 0 19.5422C2.1795 20.9477 4.7625 21.7502 7.548 21.7502C16.602 21.7502 21.552 14.2502 21.552 7.74924C21.552 7.53174 21.5445 7.32174 21.534 7.11324C22.5105 6.42024 23.331 5.55474 24 4.55874Z" fill="white"/>
</svg>
