<svg width="25" height="24" viewBox="0 0 25 24" fill="none" xmlns="http://www.w3.org/2000/svg">
<path fill-rule="evenodd" clip-rule="evenodd" d="M21.9176 4.12359C22.9456 4.40045 23.7562 5.21087 24.0329 6.239C24.547 8.11692 24.5272 12.0313 24.5272 12.0313C24.5272 12.0313 24.5272 15.9258 24.033 17.8039C23.7562 18.8318 22.9458 19.6425 21.9176 19.9191C20.0395 20.4135 12.5273 20.4135 12.5273 20.4135C12.5273 20.4135 5.03465 20.4135 3.13695 19.8995C2.10882 19.6227 1.2984 18.8121 1.02154 17.7841C0.527344 15.9258 0.527344 12.0116 0.527344 12.0116C0.527344 12.0116 0.527344 8.11692 1.02154 6.239C1.29821 5.21105 2.12859 4.38067 3.13677 4.104C5.01487 3.60962 12.5271 3.60962 12.5271 3.60962C12.5271 3.60962 20.0395 3.60962 21.9176 4.12359ZM16.3818 12.0114L10.1348 15.6094V8.41333L16.3818 12.0114Z" fill="white"/>
</svg>
