<svg width="231" height="53" viewBox="0 0 231 53" fill="none" xmlns="http://www.w3.org/2000/svg">
<path d="M2.24 4.856C4.71467 4.68533 6.90133 4.6 8.8 4.6C14.0693 4.6 16.704 6.36 16.704 9.88C16.704 11.3733 16.3413 12.7067 15.616 13.88C14.8907 15.0533 13.6427 15.832 11.872 16.216L18.272 27H15.296L9.024 16.408H4.896V27H2.24V4.856ZM8.8 4.92C7.56267 4.92 6.26133 4.99467 4.896 5.144V16.088H9.632C12.64 15.96 14.144 13.912 14.144 9.944C14.144 8.32267 13.696 7.08533 12.8 6.232C11.904 5.35733 10.5707 4.92 8.8 4.92ZM33.7148 27C32.2641 27 31.2721 26.7227 30.7388 26.168C30.2481 25.6987 30.0028 25.2933 30.0028 24.952V24.28C28.9574 26.1787 27.2828 27.128 24.9788 27.128C22.2908 27.128 20.7654 25.912 20.4028 23.48C20.3601 23.224 20.3388 22.968 20.3388 22.712C20.3388 22.4347 20.3814 22.136 20.4668 21.816C20.5521 21.496 20.7974 21.144 21.2028 20.76C22.0134 19.992 23.7948 19.5227 26.5468 19.352C27.2294 19.288 27.8588 19.256 28.4348 19.256C29.0108 19.256 29.5334 19.2773 30.0028 19.32V14.008C29.9601 13.9867 29.9601 13.8907 30.0028 13.72C30.0454 13.528 30.0028 13.2933 29.8748 13.016C29.7681 12.7173 29.6188 12.4293 29.4268 12.152C29.2348 11.8747 28.8934 11.64 28.4028 11.448C27.9121 11.2347 27.2721 11.128 26.4828 11.128C25.6934 11.128 24.7654 11.2773 23.6988 11.576C22.6534 11.8533 21.8854 12.1307 21.3948 12.408L21.2668 12.184C23.1654 11.3093 25.0961 10.872 27.0588 10.872C29.2561 10.872 30.7068 11.2667 31.4108 12.056C31.9654 12.6747 32.2428 13.3253 32.2428 14.008V24.728C32.2428 25.3467 32.3601 25.8267 32.5948 26.168C32.8508 26.488 33.1068 26.6587 33.3628 26.68L33.7148 26.744H34.7068V27H33.7148ZM25.4908 26.872C26.6214 26.872 27.6348 26.488 28.5308 25.72C29.4481 24.9307 29.9388 24.1733 30.0028 23.448V19.576C29.4268 19.5333 28.8401 19.512 28.2428 19.512C27.6668 19.512 27.0908 19.544 26.5148 19.608C24.8934 19.8 23.8374 20.1627 23.3468 20.696C22.8561 21.2293 22.6108 21.9653 22.6108 22.904C22.6108 23.0747 22.6214 23.2667 22.6428 23.48C22.8348 25.7413 23.7841 26.872 25.4908 26.872ZM39.2195 9.496V11H41.7475V11.256H39.2195V27H36.9795V11.256H36.3075V11H36.9795V9.496C36.9795 7.17067 37.4808 5.51733 38.4835 4.536C39.4862 3.53333 41.1075 3.02133 43.3475 3V3.256C41.8755 3.27733 40.8195 3.77866 40.1795 4.76C39.5395 5.72 39.2195 7.29867 39.2195 9.496ZM46.7508 9.496V11H49.2788V11.256H46.7508V27H44.5108V11.256H43.8388V11H44.5108V9.496C44.5108 7.17067 45.0121 5.51733 46.0148 4.536C47.0174 3.53333 48.6388 3.02133 50.8788 3V3.256C49.4068 3.27733 48.3508 3.77866 47.7108 4.76C47.0708 5.72 46.7508 7.29867 46.7508 9.496ZM54.794 27C53.9193 27 53.2473 26.808 52.778 26.424C52.33 26.04 52.0953 25.656 52.074 25.272L52.042 24.728V11H54.282V24.728C54.282 25.3467 54.3993 25.8267 54.634 26.168C54.89 26.488 55.1353 26.6587 55.37 26.68L55.754 26.744H56.746V27H54.794ZM52.234 7.416C51.978 7.16 51.85 6.84 51.85 6.456C51.85 6.072 51.978 5.752 52.234 5.496C52.49 5.21866 52.81 5.08 53.194 5.08C53.578 5.08 53.898 5.21866 54.154 5.496C54.4313 5.752 54.57 6.072 54.57 6.456C54.57 6.84 54.4313 7.16 54.154 7.416C53.898 7.672 53.578 7.8 53.194 7.8C52.81 7.8 52.49 7.672 52.234 7.416ZM71.9663 27C71.0916 27 70.4196 26.808 69.9503 26.424C69.5023 26.04 69.2676 25.656 69.2463 25.272L69.2143 24.728V14.68C69.2143 12.9947 68.7769 11.9173 67.9023 11.448C67.4543 11.2347 66.8996 11.128 66.2383 11.128C64.8729 11.128 63.6463 11.672 62.5583 12.76C61.4703 13.8267 60.9263 14.7867 60.9263 15.64V27H58.6863V11H60.9263V14.648C61.2889 13.7307 61.9609 12.8773 62.9423 12.088C63.9236 11.2773 65.0009 10.872 66.1743 10.872C67.3476 10.872 68.2969 10.9893 69.0223 11.224C69.7689 11.4373 70.3129 11.7467 70.6543 12.152C71.1876 12.8133 71.4543 13.6667 71.4543 14.712V24.728C71.4543 25.3467 71.5716 25.8267 71.8063 26.168C72.0623 26.488 72.3183 26.6587 72.5743 26.68L72.9263 26.744H73.9183V27H71.9663ZM88.746 27C87.2953 27 86.3033 26.7227 85.77 26.168C85.2793 25.6987 85.034 25.2933 85.034 24.952V24.28C83.9887 26.1787 82.314 27.128 80.01 27.128C77.322 27.128 75.7967 25.912 75.434 23.48C75.3913 23.224 75.37 22.968 75.37 22.712C75.37 22.4347 75.4127 22.136 75.498 21.816C75.5833 21.496 75.8287 21.144 76.234 20.76C77.0447 19.992 78.826 19.5227 81.578 19.352C82.2607 19.288 82.89 19.256 83.466 19.256C84.042 19.256 84.5647 19.2773 85.034 19.32V14.008C84.9913 13.9867 84.9913 13.8907 85.034 13.72C85.0767 13.528 85.034 13.2933 84.906 13.016C84.7993 12.7173 84.65 12.4293 84.458 12.152C84.266 11.8747 83.9247 11.64 83.434 11.448C82.9433 11.2347 82.3033 11.128 81.514 11.128C80.7247 11.128 79.7967 11.2773 78.73 11.576C77.6847 11.8533 76.9167 12.1307 76.426 12.408L76.298 12.184C78.1967 11.3093 80.1273 10.872 82.09 10.872C84.2873 10.872 85.738 11.2667 86.442 12.056C86.9967 12.6747 87.274 13.3253 87.274 14.008V24.728C87.274 25.3467 87.3913 25.8267 87.626 26.168C87.882 26.488 88.138 26.6587 88.394 26.68L88.746 26.744H89.738V27H88.746ZM80.522 26.872C81.6527 26.872 82.666 26.488 83.562 25.72C84.4793 24.9307 84.97 24.1733 85.034 23.448V19.576C84.458 19.5333 83.8713 19.512 83.274 19.512C82.698 19.512 82.122 19.544 81.546 19.608C79.9247 19.8 78.8687 20.1627 78.378 20.696C77.8873 21.2293 77.642 21.9653 77.642 22.904C77.642 23.0747 77.6527 23.2667 77.674 23.48C77.866 25.7413 78.8153 26.872 80.522 26.872ZM91.9638 11.256V11H92.6358V7.8H94.8758V11H99.7718V11.256H94.8758V22.904C94.8758 24.2907 95.0251 25.2933 95.3238 25.912C95.6438 26.5307 96.2944 26.84 97.2758 26.84C98.2784 26.84 99.2918 26.6373 100.316 26.232L100.412 26.488C99.3451 26.8933 98.1184 27.096 96.7318 27.096C95.3664 27.096 94.3424 26.8187 93.6598 26.264C92.9771 25.688 92.6358 24.5573 92.6358 22.872V11.256H91.9638ZM108.802 27.128C106.562 27.128 104.738 26.488 103.33 25.208C101.922 23.928 101.218 21.9547 101.218 19.288C101.218 16.6213 101.943 14.552 103.394 13.08C104.866 11.608 106.722 10.872 108.962 10.872C111.223 10.872 113.058 11.512 114.466 12.792C115.874 14.072 116.578 16.0453 116.578 18.712C116.578 21.3787 115.842 23.448 114.37 24.92C112.919 26.392 111.063 27.128 108.802 27.128ZM109.026 11.128C107.404 11.128 106.06 11.8533 104.994 13.304C103.927 14.7333 103.394 16.7387 103.394 19.32C103.394 21.88 103.884 23.7787 104.866 25.016C105.847 26.2533 107.148 26.872 108.77 26.872C110.391 26.872 111.735 26.1573 112.802 24.728C113.868 23.2773 114.402 21.272 114.402 18.712C114.402 16.1307 113.911 14.2213 112.93 12.984C111.948 11.7467 110.647 11.128 109.026 11.128ZM128.75 27H128.366L137.934 4.6L138.286 4.44L146.35 27H143.63L141.134 19.96H131.79L128.75 27ZM136.942 8.056L131.918 19.64H141.038L136.942 8.056ZM148.6 11H150.84V14.968C151.203 13.9867 151.875 13.0587 152.856 12.184C153.837 11.3093 154.947 10.872 156.184 10.872C160.515 10.872 162.68 13.4107 162.68 18.488C162.68 24.248 159.885 27.128 154.296 27.128C153.293 27.128 152.141 26.8933 150.84 26.424V35H148.6V11ZM156.152 11.128C154.829 11.128 153.635 11.704 152.568 12.856C151.501 13.9867 150.925 15.0107 150.84 15.928V26.136C152.141 26.6267 153.283 26.872 154.264 26.872C158.381 26.872 160.44 24.0667 160.44 18.456C160.44 13.5707 159.011 11.128 156.152 11.128ZM165.569 11H167.809V14.968C168.171 13.9867 168.843 13.0587 169.825 12.184C170.806 11.3093 171.915 10.872 173.153 10.872C177.483 10.872 179.649 13.4107 179.649 18.488C179.649 24.248 176.854 27.128 171.265 27.128C170.262 27.128 169.11 26.8933 167.809 26.424V35H165.569V11ZM173.121 11.128C171.798 11.128 170.603 11.704 169.537 12.856C168.47 13.9867 167.894 15.0107 167.809 15.928V26.136C169.11 26.6267 170.251 26.872 171.233 26.872C175.35 26.872 177.409 24.0667 177.409 18.456C177.409 13.5707 175.979 11.128 173.121 11.128ZM195.434 27C193.983 27 192.991 26.7227 192.458 26.168C191.967 25.6987 191.722 25.2933 191.722 24.952V24.28C190.676 26.1787 189.002 27.128 186.698 27.128C184.01 27.128 182.484 25.912 182.122 23.48C182.079 23.224 182.058 22.968 182.058 22.712C182.058 22.4347 182.1 22.136 182.186 21.816C182.271 21.496 182.516 21.144 182.922 20.76C183.732 19.992 185.514 19.5227 188.266 19.352C188.948 19.288 189.578 19.256 190.154 19.256C190.73 19.256 191.252 19.2773 191.722 19.32V14.008C191.679 13.9867 191.679 13.8907 191.722 13.72C191.764 13.528 191.722 13.2933 191.594 13.016C191.487 12.7173 191.338 12.4293 191.146 12.152C190.954 11.8747 190.612 11.64 190.122 11.448C189.631 11.2347 188.991 11.128 188.202 11.128C187.412 11.128 186.484 11.2773 185.418 11.576C184.372 11.8533 183.604 12.1307 183.114 12.408L182.986 12.184C184.884 11.3093 186.815 10.872 188.778 10.872C190.975 10.872 192.426 11.2667 193.13 12.056C193.684 12.6747 193.962 13.3253 193.962 14.008V24.728C193.962 25.3467 194.079 25.8267 194.314 26.168C194.57 26.488 194.826 26.6587 195.082 26.68L195.434 26.744H196.426V27H195.434ZM187.21 26.872C188.34 26.872 189.354 26.488 190.25 25.72C191.167 24.9307 191.658 24.1733 191.722 23.448V19.576C191.146 19.5333 190.559 19.512 189.962 19.512C189.386 19.512 188.81 19.544 188.234 19.608C186.612 19.8 185.556 20.1627 185.066 20.696C184.575 21.2293 184.33 21.9653 184.33 22.904C184.33 23.0747 184.34 23.2667 184.362 23.48C184.554 25.7413 185.503 26.872 187.21 26.872ZM204.298 12.376V11.704C203.338 12.088 202.464 12.8667 201.674 14.04C200.885 15.192 200.469 16.28 200.426 17.304V27H198.186V11H200.426V16.088C200.768 14.8507 201.418 13.688 202.378 12.6C203.338 11.4907 204.426 10.9147 205.642 10.872H205.77C206.197 10.872 206.549 11.0213 206.826 11.32C207.125 11.5973 207.274 11.9493 207.274 12.376C207.274 12.8027 207.125 13.1547 206.826 13.432C206.549 13.7093 206.197 13.848 205.77 13.848C205.344 13.848 204.992 13.7093 204.714 13.432C204.437 13.1547 204.298 12.8027 204.298 12.376ZM210.894 19.192C210.894 21.8373 211.352 23.7787 212.27 25.016C213.208 26.2533 214.435 26.872 215.95 26.872C218.083 26.872 219.982 26.552 221.646 25.912L221.742 26.136C220.035 26.7973 218.104 27.128 215.95 27.128C213.816 27.128 212.078 26.488 210.734 25.208C209.39 23.928 208.718 21.9547 208.718 19.288C208.718 16.6213 209.422 14.552 210.83 13.08C212.238 11.608 214.03 10.872 216.206 10.872C217.955 10.872 219.427 11.3947 220.622 12.44C221.816 13.4853 222.414 15.032 222.414 17.08C222.414 17.1867 222.414 17.2933 222.414 17.4H210.99C210.926 17.976 210.894 18.5733 210.894 19.192ZM220.238 17.144C220.216 15.096 219.822 13.5813 219.054 12.6C218.286 11.6187 217.294 11.128 216.078 11.128C214.862 11.128 213.774 11.6613 212.814 12.728C211.875 13.7947 211.278 15.2667 211.022 17.144H220.238ZM228.75 27C226.873 27 225.689 26.5093 225.198 25.528C225.092 25.3147 225.038 25.1227 225.038 24.952V3.032H227.278V24.728C227.278 25.3467 227.396 25.8267 227.63 26.168C227.886 26.488 228.142 26.6587 228.398 26.68L228.75 26.744H229.742V27H228.75Z" fill="#2F1600"/>
<rect y="44" width="101" height="1" fill="#2F1600"/>
<rect y="49" width="101" height="1" fill="#2F1600"/>
<rect x="128" y="44" width="102" height="1" fill="#2F1600"/>
<rect x="128" y="49" width="102" height="1" fill="#2F1600"/>
<rect x="109" y="46.6567" width="8" height="8" transform="rotate(-45 109 46.6567)" fill="#2F1600"/>
</svg>
