<svg width="36" height="33" viewBox="0 0 36 33" fill="none" xmlns="http://www.w3.org/2000/svg">
<path d="M2.24 5.43803C4.71467 5.26736 6.90133 5.18203 8.8 5.18203C14.0693 5.18203 16.704 6.94203 16.704 10.462C16.704 11.9554 16.3413 13.2887 15.616 14.462C14.8907 15.6354 13.6427 16.414 11.872 16.798L18.272 27.582H15.296L9.024 16.99H4.896V27.582H2.24V5.43803ZM8.8 5.50203C7.56267 5.50203 6.26133 5.5767 4.896 5.72603V16.67H9.632C12.64 16.542 14.144 14.494 14.144 10.526C14.144 8.9047 13.696 7.66736 12.8 6.81403C11.904 5.93936 10.5707 5.50203 8.8 5.50203Z" fill="#2F1600"/>
<rect width="7.93061" height="7.93061" transform="matrix(0.713294 -0.700865 0.713294 0.700865 24 15.9658)" fill="#2F1600"/>
</svg>
